G04 DipTrace 3.0.0.2*
G04 BottomSilk.GBO*
%MOIN*%
G04 #@! TF.FileFunction,Legend,Bot*
G04 #@! TF.Part,Single*
%ADD39C,0.004632*%
%ADD40C,0.006176*%
%FSLAX26Y26*%
G04*
G70*
G90*
G75*
G01*
G04 BotSilk*
%LPD*%
X679036Y1222082D2*
D39*
X680462Y1224934D1*
X683347Y1227819D1*
X686199Y1229245D1*
X691936D1*
X694821Y1227819D1*
X697673Y1224934D1*
X699132Y1222082D1*
X700558Y1217771D1*
Y1210575D1*
X699132Y1206297D1*
X697673Y1203412D1*
X694821Y1200560D1*
X691936Y1199101D1*
X686199D1*
X683347Y1200560D1*
X680462Y1203412D1*
X679036Y1206297D1*
Y1210575D1*
X686199D1*
X649677Y1229245D2*
Y1199101D1*
X669773Y1229245D1*
Y1199101D1*
X640413Y1229245D2*
Y1199101D1*
X630365D1*
X626054Y1200560D1*
X623169Y1203412D1*
X621743Y1206297D1*
X620317Y1210575D1*
Y1217771D1*
X621743Y1222082D1*
X623169Y1224934D1*
X626054Y1227819D1*
X630365Y1229245D1*
X640413D1*
X777564Y1224934D2*
X780416Y1227819D1*
X784727Y1229245D1*
X790464D1*
X794775Y1227819D1*
X797660Y1224934D1*
Y1222082D1*
X796201Y1219197D1*
X794775Y1217771D1*
X791923Y1216345D1*
X783301Y1213460D1*
X780416Y1212034D1*
X778990Y1210575D1*
X777564Y1207723D1*
Y1203412D1*
X780416Y1200560D1*
X784727Y1199101D1*
X790464D1*
X794775Y1200560D1*
X797660Y1203412D1*
X746779Y1222082D2*
X748205Y1224934D1*
X751090Y1227819D1*
X753941Y1229245D1*
X759678D1*
X762564Y1227819D1*
X765415Y1224934D1*
X766875Y1222082D1*
X768301Y1217771D1*
Y1210575D1*
X766875Y1206297D1*
X765415Y1203412D1*
X762564Y1200560D1*
X759678Y1199101D1*
X753941D1*
X751090Y1200560D1*
X748205Y1203412D1*
X746779Y1206297D1*
X737515Y1229245D2*
Y1199101D1*
X720304D1*
X875643Y1224934D2*
X878495Y1227819D1*
X882806Y1229245D1*
X888543D1*
X892854Y1227819D1*
X895739Y1224934D1*
Y1222082D1*
X894280Y1219197D1*
X892854Y1217771D1*
X890002Y1216345D1*
X881380Y1213460D1*
X878495Y1212034D1*
X877069Y1210575D1*
X875643Y1207723D1*
Y1203412D1*
X878495Y1200560D1*
X882806Y1199101D1*
X888543D1*
X892854Y1200560D1*
X895739Y1203412D1*
X866380Y1229245D2*
Y1199101D1*
X856332D1*
X852021Y1200560D1*
X849136Y1203412D1*
X847710Y1206297D1*
X846284Y1210575D1*
Y1217771D1*
X847710Y1222082D1*
X849136Y1224934D1*
X852021Y1227819D1*
X856332Y1229245D1*
X866380D1*
X814039Y1199101D2*
X825546Y1229245D1*
X837020Y1199101D1*
X832709Y1209149D2*
X818350D1*
X989034Y1227073D2*
Y1201240D1*
X1001934Y1214140D2*
X976101D1*
X949627Y1229212D2*
X963953D1*
X965379Y1216312D1*
X963953Y1217738D1*
X959642Y1219197D1*
X955364D1*
X951053Y1217738D1*
X948168Y1214886D1*
X946742Y1210575D1*
Y1207723D1*
X948168Y1203412D1*
X951053Y1200527D1*
X955364Y1199101D1*
X959642D1*
X963953Y1200527D1*
X965379Y1201986D1*
X966838Y1204838D1*
X937478Y1219197D2*
X928856Y1199101D1*
X920267Y1219197D1*
X679047Y428415D2*
X680473Y431267D1*
X683358Y434152D1*
X686210Y435578D1*
X691947D1*
X694832Y434152D1*
X697684Y431267D1*
X699143Y428415D1*
X700569Y424104D1*
Y416908D1*
X699143Y412630D1*
X697684Y409745D1*
X694832Y406893D1*
X691947Y405434D1*
X686210D1*
X683358Y406893D1*
X680473Y409745D1*
X679047Y412630D1*
Y416908D1*
X686210D1*
X649687Y435578D2*
Y405434D1*
X669783Y435578D1*
Y405434D1*
X640424Y435578D2*
Y405434D1*
X630376D1*
X626065Y406893D1*
X623180Y409745D1*
X621754Y412630D1*
X620328Y416908D1*
Y424104D1*
X621754Y428415D1*
X623180Y431267D1*
X626065Y434152D1*
X630376Y435578D1*
X640424D1*
X783824Y431267D2*
X786676Y434152D1*
X790987Y435578D1*
X796724D1*
X801035Y434152D1*
X803920Y431267D1*
Y428415D1*
X802461Y425530D1*
X801035Y424104D1*
X798183Y422678D1*
X789561Y419793D1*
X786676Y418367D1*
X785250Y416908D1*
X783824Y414056D1*
Y409745D1*
X786676Y406893D1*
X790987Y405434D1*
X796724D1*
X801035Y406893D1*
X803920Y409745D1*
X753038Y428415D2*
X754464Y431267D1*
X757349Y434152D1*
X760201Y435578D1*
X765938D1*
X768823Y434152D1*
X771675Y431267D1*
X773134Y428415D1*
X774560Y424104D1*
Y416908D1*
X773134Y412630D1*
X771675Y409745D1*
X768823Y406893D1*
X765938Y405434D1*
X760201D1*
X757349Y406893D1*
X754464Y409745D1*
X753038Y412630D1*
X743775Y435578D2*
Y405434D1*
X726564D1*
X881903Y431267D2*
X884755Y434152D1*
X889066Y435578D1*
X894803D1*
X899114Y434152D1*
X901999Y431267D1*
Y428415D1*
X900540Y425530D1*
X899114Y424104D1*
X896262Y422678D1*
X887640Y419793D1*
X884755Y418367D1*
X883329Y416908D1*
X881903Y414056D1*
Y409745D1*
X884755Y406893D1*
X889066Y405434D1*
X894803D1*
X899114Y406893D1*
X901999Y409745D1*
X872639Y435578D2*
Y405434D1*
X862591D1*
X858280Y406893D1*
X855395Y409745D1*
X853969Y412630D1*
X852543Y416908D1*
Y424104D1*
X853969Y428415D1*
X855395Y431267D1*
X858280Y434152D1*
X862591Y435578D1*
X872639D1*
X820299Y405434D2*
X831806Y435578D1*
X843280Y405434D1*
X838969Y415482D2*
X824610D1*
X1083785Y435578D2*
X1102455D1*
Y405434D1*
Y421219D2*
X1090981D1*
X1074521D2*
X1061621D1*
X1057310Y422678D1*
X1055851Y424104D1*
X1054425Y426956D1*
Y429841D1*
X1055851Y432693D1*
X1057310Y434152D1*
X1061621Y435578D1*
X1074521D1*
Y405434D1*
X1064473Y421219D2*
X1054425Y405434D1*
X1026525Y435578D2*
X1045161D1*
Y405434D1*
X1026525D1*
X1045161Y421219D2*
X1033687D1*
X1182374Y435578D2*
X1201044D1*
Y405434D1*
Y421219D2*
X1189570D1*
X1173111Y435578D2*
Y405434D1*
X1155900D1*
X1136588Y435578D2*
Y405434D1*
X1146636Y435578D2*
X1126540D1*
X989045Y433406D2*
Y407573D1*
X1001945Y420473D2*
X976112D1*
X949637Y435545D2*
X963963D1*
X965389Y422645D1*
X963963Y424071D1*
X959652Y425530D1*
X955374D1*
X951063Y424071D1*
X948178Y421219D1*
X946752Y416908D1*
Y414056D1*
X948178Y409745D1*
X951063Y406860D1*
X955374Y405434D1*
X959652D1*
X963963Y406860D1*
X965389Y408319D1*
X966848Y411171D1*
X937489Y425530D2*
X928867Y405434D1*
X920278Y425530D1*
X971100Y1144972D2*
D40*
Y1104780D1*
X960382D1*
X955784Y1106726D1*
X952706Y1110528D1*
X951185Y1114375D1*
X949664Y1120079D1*
Y1129674D1*
X951185Y1135422D1*
X952706Y1139224D1*
X955784Y1143071D1*
X960382Y1144972D1*
X971100D1*
X939783Y1120079D2*
X921425D1*
Y1123926D1*
X922946Y1127773D1*
X924467Y1129674D1*
X927544Y1131575D1*
X932143D1*
X935185Y1129674D1*
X938262Y1125827D1*
X939783Y1120079D1*
Y1116276D1*
X938262Y1110528D1*
X935185Y1106726D1*
X932143Y1104780D1*
X927544D1*
X924467Y1106726D1*
X921425Y1110528D1*
X894706Y1125827D2*
X896227Y1129674D1*
X900826Y1131575D1*
X905424D1*
X910023Y1129674D1*
X911544Y1125827D1*
X910023Y1122025D1*
X906945Y1120079D1*
X899305Y1118178D1*
X896227Y1116276D1*
X894706Y1112430D1*
Y1110528D1*
X896227Y1106726D1*
X900826Y1104780D1*
X905424D1*
X910023Y1106726D1*
X911544Y1110528D1*
X884825Y1144972D2*
X883304Y1143071D1*
X881748Y1144972D1*
X883304Y1146918D1*
X884825Y1144972D1*
X883304Y1131575D2*
Y1104780D1*
X853508Y1129674D2*
Y1099032D1*
X855029Y1093329D1*
X856550Y1091383D1*
X859628Y1089482D1*
X864226D1*
X867268Y1091383D1*
X853508Y1123926D2*
X856550Y1127728D1*
X859628Y1129674D1*
X864226D1*
X867268Y1127728D1*
X870346Y1123926D1*
X871867Y1118178D1*
Y1114331D1*
X870346Y1108627D1*
X867268Y1104780D1*
X864226Y1102879D1*
X859628D1*
X856550Y1104780D1*
X853508Y1108627D1*
X843627Y1131575D2*
Y1104780D1*
Y1123926D2*
X839029Y1129674D1*
X835951Y1131575D1*
X831388D1*
X828311Y1129674D1*
X826790Y1123926D1*
Y1104780D1*
X816909Y1120079D2*
X798550D1*
Y1123926D1*
X800071Y1127773D1*
X801592Y1129674D1*
X804670Y1131575D1*
X809268D1*
X812310Y1129674D1*
X815388Y1125827D1*
X816909Y1120079D1*
Y1116276D1*
X815388Y1110528D1*
X812310Y1106726D1*
X809268Y1104780D1*
X804670D1*
X801592Y1106726D1*
X798550Y1110528D1*
X770311Y1144972D2*
Y1104780D1*
Y1125827D2*
X773353Y1129674D1*
X776430Y1131575D1*
X781029D1*
X784071Y1129674D1*
X787148Y1125827D1*
X788669Y1120079D1*
Y1116276D1*
X787148Y1110528D1*
X784071Y1106726D1*
X781029Y1104780D1*
X776430D1*
X773353Y1106726D1*
X770311Y1110528D1*
X729325Y1144972D2*
Y1104780D1*
X715530D1*
X710931Y1106726D1*
X709410Y1108627D1*
X707889Y1112430D1*
Y1118178D1*
X709410Y1122025D1*
X710931Y1123926D1*
X715530Y1125827D1*
X710931Y1127773D1*
X709410Y1129674D1*
X707889Y1133476D1*
Y1137323D1*
X709410Y1141126D1*
X710931Y1143071D1*
X715530Y1144972D1*
X729325D1*
Y1125827D2*
X715530D1*
X696452Y1131575D2*
X687290Y1104780D1*
X690333Y1097131D1*
X693410Y1093284D1*
X696452Y1091383D1*
X698008D1*
X678094Y1131575D2*
X687290Y1104780D1*
X666656Y1131575D2*
X668213Y1129630D1*
X666656Y1127728D1*
X665135Y1129630D1*
X666656Y1131575D1*
Y1108627D2*
X668213Y1106682D1*
X666656Y1104780D1*
X665135Y1106682D1*
X666656Y1108627D1*
X952730Y1043220D2*
D39*
X964238Y1073364D1*
X975712Y1043220D1*
X971401Y1053268D2*
X957041D1*
X943467Y1073364D2*
Y1043220D1*
X934203Y1054694D2*
X916992D1*
Y1057579D1*
X918418Y1060464D1*
X919844Y1061890D1*
X922729Y1063316D1*
X927040D1*
X929892Y1061890D1*
X932777Y1059005D1*
X934203Y1054694D1*
Y1051842D1*
X932777Y1047531D1*
X929892Y1044679D1*
X927040Y1043220D1*
X922729D1*
X919844Y1044679D1*
X916992Y1047531D1*
X907729Y1063316D2*
X891944Y1043220D1*
Y1063316D2*
X907729Y1043220D1*
X853520Y1073364D2*
X846324Y1043220D1*
X839161Y1073364D1*
X831998Y1043220D1*
X824802Y1073364D1*
X808375Y1063316D2*
X811227Y1061890D1*
X814112Y1059005D1*
X815538Y1054694D1*
Y1051842D1*
X814112Y1047531D1*
X811227Y1044679D1*
X808375Y1043220D1*
X804064D1*
X801179Y1044679D1*
X798327Y1047531D1*
X796868Y1051842D1*
Y1054694D1*
X798327Y1059005D1*
X801179Y1061890D1*
X804064Y1063316D1*
X808375D1*
X780442D2*
X783294Y1061890D1*
X786179Y1059005D1*
X787605Y1054694D1*
Y1051842D1*
X786179Y1047531D1*
X783294Y1044679D1*
X780442Y1043220D1*
X776131D1*
X773246Y1044679D1*
X770394Y1047531D1*
X768935Y1051842D1*
Y1054694D1*
X770394Y1059005D1*
X773246Y1061890D1*
X776131Y1063316D1*
X780442D1*
X742460Y1073364D2*
Y1043220D1*
Y1059005D2*
X745312Y1061890D1*
X748197Y1063316D1*
X752508D1*
X755360Y1061890D1*
X758245Y1059005D1*
X759671Y1054694D1*
Y1051842D1*
X758245Y1047531D1*
X755360Y1044679D1*
X752508Y1043220D1*
X748197D1*
X745312Y1044679D1*
X742460Y1047531D1*
X733197Y1063316D2*
Y1043220D1*
Y1057579D2*
X728885Y1061890D1*
X726000Y1063316D1*
X721723D1*
X718837Y1061890D1*
X717412Y1057579D1*
Y1043220D1*
Y1057579D2*
X713101Y1061890D1*
X710215Y1063316D1*
X705938D1*
X703053Y1061890D1*
X701593Y1057579D1*
Y1043220D1*
X675119Y1063316D2*
Y1043220D1*
Y1059005D2*
X677971Y1061890D1*
X680856Y1063316D1*
X685134D1*
X688019Y1061890D1*
X690871Y1059005D1*
X692330Y1054694D1*
Y1051842D1*
X690871Y1047531D1*
X688019Y1044679D1*
X685134Y1043220D1*
X680856D1*
X677971Y1044679D1*
X675119Y1047531D1*
X665855Y1063316D2*
Y1043220D1*
Y1057579D2*
X661544Y1061890D1*
X658659Y1063316D1*
X654381D1*
X651496Y1061890D1*
X650070Y1057579D1*
Y1043220D1*
X625022Y1059005D2*
X626448Y1061890D1*
X630759Y1063316D1*
X635070D1*
X639381Y1061890D1*
X640807Y1059005D1*
X639381Y1056153D1*
X636496Y1054694D1*
X629333Y1053268D1*
X626448Y1051842D1*
X625022Y1048957D1*
Y1047531D1*
X626448Y1044679D1*
X630759Y1043220D1*
X635070D1*
X639381Y1044679D1*
X640807Y1047531D1*
X615758Y1054694D2*
X598547D1*
Y1057579D1*
X599973Y1060464D1*
X601399Y1061890D1*
X604284Y1063316D1*
X608595D1*
X611447Y1061890D1*
X614332Y1059005D1*
X615758Y1054694D1*
Y1051842D1*
X614332Y1047531D1*
X611447Y1044679D1*
X608595Y1043220D1*
X604284D1*
X601399Y1044679D1*
X598547Y1047531D1*
X587825Y1063316D2*
X579236Y1043220D1*
X582088Y1037483D1*
X584973Y1034598D1*
X587825Y1033172D1*
X589284D1*
X570614Y1063316D2*
X579236Y1043220D1*
X971069Y1000827D2*
D40*
X953870D1*
X948122Y1002773D1*
X946176Y1004674D1*
X944275Y1008476D1*
Y1012323D1*
X946176Y1016126D1*
X948122Y1018071D1*
X953870Y1019972D1*
X971069D1*
Y979780D1*
X957672Y1000827D2*
X944275Y979780D1*
X931923Y995079D2*
X908975D1*
Y998926D1*
X910877Y1002773D1*
X912778Y1004674D1*
X916625Y1006575D1*
X922373D1*
X926175Y1004674D1*
X930022Y1000827D1*
X931923Y995079D1*
Y991276D1*
X930022Y985528D1*
X926175Y981726D1*
X922373Y979780D1*
X916625D1*
X912778Y981726D1*
X908975Y985528D1*
X896624Y1006575D2*
X885128Y979780D1*
X873676Y1006575D1*
X861325Y1012279D2*
X857478Y1014224D1*
X851730Y1019928D1*
Y979780D1*
X837477Y983627D2*
X839379Y981682D1*
X837477Y979780D1*
X835532Y981682D1*
X837477Y983627D1*
X811684Y1019928D2*
X817432Y1018027D1*
X821279Y1012279D1*
X823180Y1002728D1*
Y996980D1*
X821279Y987430D1*
X817432Y981682D1*
X811684Y979780D1*
X807882D1*
X802134Y981682D1*
X798331Y987430D1*
X796386Y996980D1*
Y1002728D1*
X798331Y1012279D1*
X802134Y1018027D1*
X807882Y1019928D1*
X811684D1*
X798331Y1012279D2*
X821279Y987430D1*
M02*
