M48
INCH
T01C0.0138
T02C0.0433
T03C0.0551
%
T01
X+006893Y+008437
X+007018Y+008937
X+008206Y+009187
X+008830Y+008722
X+009830Y+006312
X+011705Y+005623
X+012830Y+008499
X+006706Y+006562
T02
X+006581Y+004875
X+007581Y+004875
X+008581Y+004875
X+009581Y+004875
X+010581Y+004875
X+011581Y+004875
X+009581Y+012875
X+008581Y+012875
X+007581Y+012875
X+006581Y+012875
T03
X+004706Y+011437
X+004706Y+009437
X+012581Y+009437
X+012581Y+011437
T00
M30
