G04 DipTrace 3.0.0.2*
G04 Top.GTL*
%MOIN*%
G04 #@! TF.FileFunction,Copper,L1,Top*
G04 #@! TF.Part,Single*
G04 #@! TA.AperFunction,ComponentPad*
%ADD14C,0.11811*%
G04 #@! TA.AperFunction,Conductor*
%ADD15C,0.012992*%
%ADD16C,0.019685*%
G04 #@! TA.AperFunction,ViaPad*
%ADD17C,0.027559*%
G04 #@! TA.AperFunction,CopperBalancing*
%ADD18C,0.025*%
G04 #@! TA.AperFunction,ComponentPad*
%ADD19R,0.066929X0.066929*%
%ADD20C,0.066929*%
%ADD21R,0.062992X0.070866*%
%ADD22R,0.070866X0.01378*%
%FSLAX26Y26*%
G04*
G70*
G90*
G75*
G01*
G04 Top*
%LPD*%
X970672Y868701D2*
D15*
X1026656D1*
X1083045Y812312D1*
Y574837D1*
X1158073Y499808D1*
Y487451D1*
X758073Y843701D2*
X689323D1*
X1287056Y799953D2*
Y849903D1*
X1282976D1*
X758073Y918701D2*
X820573D1*
X670577Y712451D2*
D16*
Y656201D1*
X983008Y631176D2*
Y679007D1*
X974563Y687451D1*
X958073Y487451D2*
D17*
Y531108D1*
X983008Y556042D1*
Y631176D1*
X1176820Y612450D2*
D15*
Y568623D1*
X1170535Y562339D1*
X758073Y1287451D2*
Y1193701D1*
X858073Y1093701D1*
Y893701D1*
X833073Y868701D1*
X758073D1*
Y487451D2*
X783029Y512407D1*
Y685188D1*
X770530D1*
Y743664D1*
X833073Y806207D1*
Y868701D1*
X783029Y685188D2*
X780814Y687403D1*
Y712451D1*
X858073Y487451D2*
Y549951D1*
X876769Y568647D1*
Y681201D1*
X883018D1*
Y872159D1*
X889323D1*
Y1256202D1*
X858073Y1287451D1*
X701823Y893701D2*
X758073D1*
X876769Y681201D2*
X870518Y687451D1*
X864327D1*
X1058073Y487451D2*
Y806037D1*
X1020551Y843559D1*
X970814D1*
X970672Y843701D1*
X1176820Y799953D2*
Y712451D1*
X970672Y918701D2*
X1039323D1*
X1158071Y799953D1*
X1176820D1*
X1287056Y712451D2*
Y662451D1*
Y612450D1*
X970672Y893701D2*
X1033073D1*
X1108042Y818732D1*
Y674983D1*
X1120573Y662451D1*
X1287056D1*
D17*
X689323Y843701D3*
X1282976Y849903D3*
X820573Y918701D3*
X670577Y656201D3*
X983008Y631176D3*
D3*
X1170535Y562339D3*
X701823Y893701D3*
X883018Y872159D3*
X423068Y1181332D2*
D18*
X578151D1*
X423068Y1156463D2*
X652761D1*
X423068Y1131594D2*
X727370D1*
X423068Y1106726D2*
X793093D1*
X423068Y1081857D2*
X793093D1*
X423068Y1056988D2*
X793093D1*
X423068Y1032119D2*
X793093D1*
X423068Y1007251D2*
X793093D1*
X423068Y982382D2*
X793093D1*
X423068Y957513D2*
X793093D1*
X423068Y932644D2*
X525270D1*
X423068Y907776D2*
X495436D1*
X423068Y882907D2*
X465602D1*
X708648Y952083D2*
X795611D1*
X795573Y1109570D1*
X661818Y1154276D1*
X506013Y1206211D1*
X420568Y1206114D1*
X420558Y881161D1*
X466017Y881197D1*
X539172Y941937D1*
X542803Y943390D1*
X545573Y943701D1*
X696111D1*
X696148Y952083D1*
X708648D1*
X1145364Y1168832D2*
X1311701D1*
X1101858Y1143963D2*
X1311701D1*
X1058352Y1119094D2*
X1311701D1*
X1014797Y1094226D2*
X1311701D1*
X935573Y1069357D2*
X1311701D1*
X935573Y1044488D2*
X1311701D1*
X935573Y1019619D2*
X1311701D1*
X935573Y994751D2*
X1311701D1*
X935573Y969882D2*
X1311701D1*
X1061721Y945013D2*
X1311701D1*
X1092483Y920144D2*
X1311701D1*
X1177004Y895276D2*
X1311701D1*
X933014Y952083D2*
X1032597D1*
Y951643D1*
X1041911Y951587D1*
X1049517Y950075D1*
X1056559Y946828D1*
X1062649Y942027D1*
X1062876Y941782D1*
X1082295Y922381D1*
X1222448Y881179D1*
X1257640Y881183D1*
X1264693Y885785D1*
X1270532Y888204D1*
X1276677Y889679D1*
X1282976Y890175D1*
X1289276Y889679D1*
X1295421Y888204D1*
X1301259Y885785D1*
X1306647Y882483D1*
X1308345Y881145D1*
X1314222Y881151D1*
X1314214Y1193623D1*
X1186356Y1193699D1*
X1012501Y1094511D1*
X1009841Y1093826D1*
X933033Y1082854D1*
X933073Y952050D1*
D14*
X470573Y1143701D3*
Y943701D3*
X1258073Y1143701D3*
Y943701D3*
D19*
X658073Y487451D3*
D20*
X758073D3*
X858073D3*
X958073D3*
X1058073D3*
X1158073D3*
D19*
X658073Y1287451D3*
D20*
X758073D3*
X858073D3*
X958073D3*
D21*
X670577Y712451D3*
X780814D3*
X864327Y687451D3*
X974563D3*
X1176820Y799953D3*
X1287056D3*
X1176820Y712451D3*
X1287056D3*
X1176820Y612450D3*
X1287056D3*
D22*
X758073Y1093701D3*
Y1068701D3*
Y1043701D3*
Y1018701D3*
Y993701D3*
Y968701D3*
Y943701D3*
Y918701D3*
Y893701D3*
Y868701D3*
Y843701D3*
Y818701D3*
X970680Y818681D3*
X970672Y843701D3*
Y868701D3*
Y893701D3*
Y918701D3*
Y943701D3*
Y968701D3*
Y993701D3*
Y1018701D3*
Y1043701D3*
Y1068701D3*
Y1093701D3*
M02*
