G04 DipTrace 3.0.0.2*
G04 TopSilk.GTO*
%MOIN*%
G04 #@! TF.FileFunction,Legend,Top*
G04 #@! TF.Part,Single*
%ADD10C,0.007874*%
%ADD37C,0.00772*%
%ADD38C,0.005906*%
%ADD39C,0.004632*%
%FSLAX26Y26*%
G04*
G70*
G90*
G75*
G01*
G04 TopSilk*
%LPD*%
X608101Y537453D2*
D10*
X1208046D1*
Y437451D1*
X608101D1*
Y537453D1*
X608056Y1337456D2*
X1008091D1*
Y1237451D1*
X608056D1*
Y1337456D1*
X713916Y680987D2*
X737475D1*
X713916Y743916D2*
X737475D1*
X907665Y655987D2*
X931224D1*
X907665Y718916D2*
X931224D1*
X1220159Y768488D2*
X1243718D1*
X1220159Y831417D2*
X1243718D1*
X1220159Y680987D2*
X1243718D1*
X1220159Y743916D2*
X1243718D1*
X1220159Y580986D2*
X1243718D1*
X1220159Y643915D2*
X1243718D1*
X809270Y1129420D2*
Y782963D1*
X919484Y1129420D2*
Y782963D1*
X809270D2*
X919484D1*
X809270Y1129420D2*
X844704D1*
X884050D2*
X919484D1*
X844704D2*
G03X884050Y1129420I19673J-6D01*
G01*
X489325Y712451D2*
X614325D1*
X589325Y687451D1*
X614325Y712451D2*
X589325Y737451D1*
X446107Y1275979D2*
D37*
Y1225739D1*
X495040Y1275979D2*
Y1225739D1*
X461546Y1275979D1*
Y1225739D1*
X1201577Y1266908D2*
X1196768Y1264532D1*
X1192015Y1259723D1*
X1189583Y1254970D1*
X1187207Y1247785D1*
Y1235791D1*
X1189583Y1228662D1*
X1192015Y1223853D1*
X1196768Y1219100D1*
X1201577Y1216668D1*
X1211138D1*
X1215892Y1219100D1*
X1220700Y1223853D1*
X1223077Y1228662D1*
X1225453Y1235791D1*
Y1247785D1*
X1223077Y1254970D1*
X1220700Y1259723D1*
X1215892Y1264532D1*
X1211138Y1266908D1*
X1201577D1*
X1240892D2*
Y1231038D1*
X1243269Y1223853D1*
X1248077Y1219100D1*
X1255262Y1216668D1*
X1260016D1*
X1267201Y1219100D1*
X1272009Y1223853D1*
X1274386Y1231038D1*
Y1266908D1*
X1306572D2*
Y1216668D1*
X1289825Y1266908D2*
X1323318D1*
X1018426Y833562D2*
X1044679D1*
X1030365Y814438D1*
X1037550D1*
X1042303Y812062D1*
X1044679Y809685D1*
X1047111Y802500D1*
Y797747D1*
X1044679Y790562D1*
X1039926Y785753D1*
X1032741Y783377D1*
X1025556D1*
X1018426Y785753D1*
X1016050Y788185D1*
X1013618Y792938D1*
X1076921Y833562D2*
X1069736Y831185D1*
X1064927Y824000D1*
X1062551Y812062D1*
Y804877D1*
X1064927Y792938D1*
X1069736Y785753D1*
X1076921Y783377D1*
X1081674D1*
X1088859Y785753D1*
X1093612Y792938D1*
X1096044Y804877D1*
Y812062D1*
X1093612Y824000D1*
X1088859Y831185D1*
X1081674Y833562D1*
X1076921D1*
X1093612Y824000D2*
X1064927Y792938D1*
X1111483Y833617D2*
Y783377D1*
X1135415Y816870D2*
X1111483Y792938D1*
X1121045Y802500D2*
X1137791Y783377D1*
X1014862Y734106D2*
Y736483D1*
X1017238Y741291D1*
X1019615Y743668D1*
X1024423Y746044D1*
X1033985D1*
X1038738Y743668D1*
X1041115Y741291D1*
X1043546Y736483D1*
Y731730D1*
X1041115Y726921D1*
X1036361Y719791D1*
X1012430Y695860D1*
X1045923D1*
X1085294D2*
Y746044D1*
X1061362Y712606D1*
X1097232D1*
X1112671Y746100D2*
Y695860D1*
X1136603Y729353D2*
X1112671Y705421D1*
X1122233Y714983D2*
X1138980Y695860D1*
X1030112Y589609D2*
Y639794D1*
X1006180Y606356D1*
X1042050D1*
X1062298Y639794D2*
X1088551D1*
X1074236Y620671D1*
X1081421D1*
X1086174Y618294D1*
X1088551Y615917D1*
X1090983Y608732D1*
Y603979D1*
X1088551Y596794D1*
X1083798Y591986D1*
X1076613Y589609D1*
X1069428D1*
X1062298Y591986D1*
X1059921Y594418D1*
X1057490Y599171D1*
X1106422Y639849D2*
Y589609D1*
X1130354Y623102D2*
X1106422Y599171D1*
X1115984Y608732D2*
X1132730Y589609D1*
X833914Y977667D2*
Y941797D1*
X836290Y934612D1*
X841099Y929858D1*
X848284Y927427D1*
X853037D1*
X860222Y929858D1*
X865030Y934612D1*
X867407Y941797D1*
Y977667D1*
X882846Y968050D2*
X887655Y970482D1*
X894840Y977611D1*
Y927427D1*
X410219Y816456D2*
D38*
X407623Y815030D1*
X405056Y812145D1*
X403743Y809293D1*
X402459Y804982D1*
Y797786D1*
X403743Y793508D1*
X405056Y790623D1*
X407623Y787771D1*
X410219Y786312D1*
X415382D1*
X417949Y787771D1*
X420546Y790623D1*
X421829Y793508D1*
X423112Y797786D1*
Y804982D1*
X421829Y809293D1*
X420546Y812145D1*
X417949Y815030D1*
X415382Y816456D1*
X410219D1*
X433742Y800671D2*
X445382D1*
X449232Y802097D1*
X450545Y803556D1*
X451829Y806408D1*
Y810719D1*
X450545Y813571D1*
X449232Y815030D1*
X445382Y816456D1*
X433742D1*
Y786312D1*
X471502Y816456D2*
Y786312D1*
X462459Y816456D2*
X480545D1*
X491175D2*
Y786312D1*
X509565Y816456D2*
X506968Y815030D1*
X504401Y812145D1*
X503088Y809293D1*
X501805Y804982D1*
Y797786D1*
X503088Y793508D1*
X504401Y790623D1*
X506968Y787771D1*
X509565Y786312D1*
X514728D1*
X517295Y787771D1*
X519891Y790623D1*
X521175Y793508D1*
X522458Y797786D1*
Y804982D1*
X521175Y809293D1*
X519891Y812145D1*
X517295Y815030D1*
X514728Y816456D1*
X509565D1*
X551174D2*
Y786312D1*
X533088Y816456D1*
Y786312D1*
X582487D2*
X572131Y816456D1*
X561804Y786312D1*
X565684Y796360D2*
X578607D1*
X593117Y816456D2*
Y786312D1*
X608607D1*
X647774Y816456D2*
Y786312D1*
X659717Y809260D2*
Y810685D1*
X661001Y813571D1*
X662284Y814997D1*
X664881Y816422D1*
X670044D1*
X672611Y814997D1*
X673894Y813571D1*
X675207Y810685D1*
Y807834D1*
X673894Y804949D1*
X671327Y800671D1*
X658404Y786312D1*
X676491D1*
X706490Y809293D2*
X705207Y812145D1*
X702610Y815030D1*
X700044Y816456D1*
X694880D1*
X692284Y815030D1*
X689717Y812145D1*
X688404Y809293D1*
X687120Y804982D1*
Y797786D1*
X688404Y793508D1*
X689717Y790623D1*
X692284Y787771D1*
X694880Y786312D1*
X700044D1*
X702610Y787771D1*
X705207Y790623D1*
X706490Y793508D1*
X402461Y756920D2*
X414100D1*
X417950Y758346D1*
X419264Y759805D1*
X420547Y762657D1*
Y766968D1*
X419264Y769820D1*
X417950Y771279D1*
X414100Y772705D1*
X402461D1*
Y742561D1*
X431177Y772705D2*
Y751183D1*
X432460Y746872D1*
X435057Y744020D1*
X438937Y742561D1*
X441504D1*
X445383Y744020D1*
X447980Y746872D1*
X449263Y751183D1*
Y772705D1*
X459893D2*
Y742561D1*
X475383D1*
X486013Y772705D2*
Y742561D1*
X501503D1*
X540670Y772705D2*
Y751183D1*
X541953Y746872D1*
X544550Y744020D1*
X548430Y742561D1*
X550997D1*
X554877Y744020D1*
X557473Y746872D1*
X558756Y751183D1*
Y772705D1*
X569386Y756920D2*
X581026D1*
X584876Y758346D1*
X586189Y759805D1*
X587473Y762657D1*
Y766968D1*
X586189Y769820D1*
X584876Y771279D1*
X581026Y772705D1*
X569386D1*
Y742561D1*
X604579Y772672D2*
X598103Y764050D1*
X605863Y771246D1*
X604579Y772672D1*
X634579Y768394D2*
X632012Y771279D1*
X628132Y772705D1*
X622969D1*
X619089Y771279D1*
X616492Y768394D1*
Y765542D1*
X617806Y762657D1*
X619089Y761231D1*
X621656Y759805D1*
X629416Y756920D1*
X632012Y755494D1*
X633296Y754035D1*
X634579Y751183D1*
Y746872D1*
X632012Y744020D1*
X628132Y742561D1*
X622969D1*
X619089Y744020D1*
X616492Y746872D1*
X635823Y422464D2*
D39*
X634397Y425316D1*
X631512Y428201D1*
X628660Y429627D1*
X622923D1*
X620038Y428201D1*
X617187Y425316D1*
X615727Y422464D1*
X614301Y418153D1*
Y410957D1*
X615727Y406679D1*
X617187Y403794D1*
X620038Y400942D1*
X622923Y399483D1*
X628660D1*
X631512Y400942D1*
X634397Y403794D1*
X635823Y406679D1*
Y410957D1*
X628660D1*
X665183Y429627D2*
Y399483D1*
X645087Y429627D1*
Y399483D1*
X674447Y429627D2*
Y399483D1*
X684495D1*
X688806Y400942D1*
X691691Y403794D1*
X693117Y406679D1*
X694543Y410957D1*
Y418153D1*
X693117Y422464D1*
X691691Y425316D1*
X688806Y428201D1*
X684495Y429627D1*
X674447D1*
X740636Y425317D2*
X737784Y428202D1*
X733473Y429628D1*
X727736D1*
X723425Y428202D1*
X720540Y425317D1*
Y422465D1*
X721999Y419580D1*
X723425Y418154D1*
X726277Y416728D1*
X734899Y413843D1*
X737784Y412417D1*
X739210Y410958D1*
X740636Y408106D1*
Y403795D1*
X737784Y400943D1*
X733473Y399484D1*
X727736D1*
X723425Y400943D1*
X720540Y403795D1*
X771422Y422465D2*
X769996Y425317D1*
X767111Y428202D1*
X764259Y429628D1*
X758522D1*
X755637Y428202D1*
X752785Y425317D1*
X751326Y422465D1*
X749900Y418154D1*
Y410958D1*
X751326Y406680D1*
X752785Y403795D1*
X755637Y400943D1*
X758522Y399484D1*
X764259D1*
X767111Y400943D1*
X769996Y403795D1*
X771422Y406680D1*
X780685Y429628D2*
Y399484D1*
X797896D1*
X834376Y425317D2*
X831525Y428202D1*
X827214Y429628D1*
X821477D1*
X817166Y428202D1*
X814280Y425317D1*
Y422465D1*
X815740Y419580D1*
X817166Y418154D1*
X820017Y416728D1*
X828639Y413843D1*
X831525Y412417D1*
X832951Y410958D1*
X834376Y408106D1*
Y403795D1*
X831525Y400943D1*
X827214Y399484D1*
X821477D1*
X817166Y400943D1*
X814280Y403795D1*
X843640Y429628D2*
Y399484D1*
X853688D1*
X857999Y400943D1*
X860884Y403795D1*
X862310Y406680D1*
X863736Y410958D1*
Y418154D1*
X862310Y422465D1*
X860884Y425317D1*
X857999Y428202D1*
X853688Y429628D1*
X843640D1*
X895981Y399484D2*
X884474Y429628D1*
X873000Y399484D1*
X877311Y409532D2*
X891670D1*
X1039189Y429628D2*
X1020519D1*
Y399484D1*
Y415269D2*
X1031993D1*
X1048453D2*
X1061353D1*
X1065664Y416728D1*
X1067123Y418154D1*
X1068549Y421006D1*
Y423891D1*
X1067123Y426743D1*
X1065664Y428202D1*
X1061353Y429628D1*
X1048453D1*
Y399484D1*
X1058501Y415269D2*
X1068549Y399484D1*
X1096449Y429628D2*
X1077812D1*
Y399484D1*
X1096449D1*
X1077812Y415269D2*
X1089286D1*
X1139179Y429628D2*
X1120509D1*
Y399484D1*
Y415269D2*
X1131983D1*
X1171423Y399484D2*
X1159916Y429628D1*
X1148442Y399484D1*
X1152753Y409532D2*
X1167112D1*
X1180687Y429628D2*
Y399484D1*
X1197898D1*
X1217209Y429628D2*
Y399484D1*
X1207161Y429628D2*
X1227257D1*
X927180Y427456D2*
Y401623D1*
X914280Y414523D2*
X940113D1*
X966588Y429595D2*
X952262D1*
X950836Y416695D1*
X952262Y418121D1*
X956573Y419580D1*
X960851D1*
X965162Y418121D1*
X968047Y415269D1*
X969473Y410958D1*
Y408106D1*
X968047Y403795D1*
X965162Y400910D1*
X960851Y399484D1*
X956573D1*
X952262Y400910D1*
X950836Y402369D1*
X949377Y405221D1*
X978737Y419580D2*
X987359Y399484D1*
X995947Y419580D1*
X636228Y1221442D2*
D38*
X634802Y1224294D1*
X631917Y1227179D1*
X629065Y1228605D1*
X623328D1*
X620443Y1227179D1*
X617591Y1224294D1*
X616132Y1221442D1*
X614706Y1217131D1*
Y1209935D1*
X616132Y1205657D1*
X617591Y1202772D1*
X620443Y1199920D1*
X623328Y1198461D1*
X629065D1*
X631917Y1199920D1*
X634802Y1202772D1*
X636228Y1205657D1*
Y1209935D1*
X629065D1*
X668135Y1228605D2*
Y1198461D1*
X648039Y1228605D1*
Y1198461D1*
X679946Y1228605D2*
Y1198461D1*
X689994D1*
X694305Y1199920D1*
X697190Y1202772D1*
X698616Y1205657D1*
X700042Y1209935D1*
Y1217131D1*
X698616Y1221442D1*
X697190Y1224294D1*
X694305Y1227179D1*
X689994Y1228605D1*
X679946D1*
X734789Y1224294D2*
X731937Y1227179D1*
X727626Y1228605D1*
X721889D1*
X717578Y1227179D1*
X714693Y1224294D1*
Y1221442D1*
X716152Y1218557D1*
X717578Y1217131D1*
X720430Y1215705D1*
X729052Y1212820D1*
X731937Y1211394D1*
X733363Y1209935D1*
X734789Y1207083D1*
Y1202772D1*
X731937Y1199920D1*
X727626Y1198461D1*
X721889D1*
X717578Y1199920D1*
X714693Y1202772D1*
X768122Y1221442D2*
X766696Y1224294D1*
X763811Y1227179D1*
X760959Y1228605D1*
X755222D1*
X752337Y1227179D1*
X749485Y1224294D1*
X748026Y1221442D1*
X746600Y1217131D1*
Y1209935D1*
X748026Y1205657D1*
X749485Y1202772D1*
X752337Y1199920D1*
X755222Y1198461D1*
X760959D1*
X763811Y1199920D1*
X766696Y1202772D1*
X768122Y1205657D1*
X779933Y1228605D2*
Y1198461D1*
X797144D1*
X828524Y1224294D2*
X825672Y1227179D1*
X821361Y1228605D1*
X815624D1*
X811313Y1227179D1*
X808428Y1224294D1*
Y1221442D1*
X809887Y1218557D1*
X811313Y1217131D1*
X814165Y1215705D1*
X822787Y1212820D1*
X825672Y1211394D1*
X827098Y1209935D1*
X828524Y1207083D1*
Y1202772D1*
X825672Y1199920D1*
X821361Y1198461D1*
X815624D1*
X811313Y1199920D1*
X808428Y1202772D1*
X840335Y1228605D2*
Y1198461D1*
X850383D1*
X854694Y1199920D1*
X857579Y1202772D1*
X859005Y1205657D1*
X860431Y1209935D1*
Y1217131D1*
X859005Y1221442D1*
X857579Y1224294D1*
X854694Y1227179D1*
X850383Y1228605D1*
X840335D1*
X895223Y1198461D2*
X883716Y1228605D1*
X872242Y1198461D1*
X876553Y1208509D2*
X890912D1*
X927556Y1226433D2*
Y1200600D1*
X914656Y1213500D2*
X940489D1*
X969511Y1228572D2*
X955185D1*
X953759Y1215672D1*
X955185Y1217098D1*
X959496Y1218557D1*
X963774D1*
X968085Y1217098D1*
X970970Y1214246D1*
X972396Y1209935D1*
Y1207083D1*
X970970Y1202772D1*
X968085Y1199887D1*
X963774Y1198461D1*
X959496D1*
X955185Y1199887D1*
X953759Y1201346D1*
X952300Y1204198D1*
X984207Y1218557D2*
X992829Y1198461D1*
X1001418Y1218557D1*
M02*
